<svg width="197" height="48" viewBox="0 0 197 48" fill="none" xmlns="http://www.w3.org/2000/svg">
<rect x="4" y="13.5864" width="30.0736" height="25.5996" transform="rotate(-3.02393 4 13.5864)" fill="white"/>
<mask id="mask0_336_3578" style="mask-type:alpha" maskUnits="userSpaceOnUse" x="4" y="12" width="32" height="28">
<rect x="4" y="13.5864" width="30.0736" height="25.5996" transform="rotate(-3.02393 4 13.5864)" fill="white"/>
</mask>
<g mask="url(#mask0_336_3578)">
<ellipse cx="10.3216" cy="21.3373" rx="7.22813" ry="11.7393" transform="rotate(-3.02393 10.3216 21.3373)" fill="#004DFF"/>
<ellipse cx="21.3001" cy="29.3539" rx="7.22813" ry="11.7393" transform="rotate(-3.02393 21.3001 29.3539)" fill="#58F366"/>
<ellipse cx="31.0023" cy="23.5077" rx="7.22813" ry="11.7393" transform="rotate(-3.02393 31.0023 23.5077)" fill="#7FE9EF"/>
<ellipse cx="7.67036" cy="28.5067" rx="7.22813" ry="11.7393" transform="rotate(-3.02393 7.67036 28.5067)" fill="#FBFE7F"/>
</g>
<g filter="url(#filter0_b_336_3578)">
<rect x="4" y="13.5864" width="30.0736" height="25.5996" transform="rotate(-3.02393 4 13.5864)" fill="white" fill-opacity="0.01"/>
</g>
<path d="M39.6275 39.9516L38.6429 3.42871L1.16688 7.20983L1.18608 7.93004L0 8.05008L0.0630748 10.3824L0.0946123 11.5604L0.245443 17.1476L0.27561 18.3299L0.42507 23.885L0.457978 25.0714L0.607438 30.5972L0.637604 31.7696L0.789807 37.3583L0.819973 38.5405L0.969433 44.0886L0.983145 44.5716L1.79626 44.4878L38.4606 40.7919L38.4414 40.0702L39.6275 39.9516ZM13.5378 23.0098L15.1873 25.4385L23.5022 17.2844L25.4 20.0787L33.5668 14.3324L24.7994 25.9172L23.3171 23.5654L15.6549 31.0634L13.8202 28.2272L4.89378 34.5081L13.5378 23.0098ZM7.66496 11.5786C7.64714 10.9281 8.101 10.3517 8.67828 10.2945C9.2528 10.2358 9.73409 10.7174 9.75329 11.3678C9.76974 12.0182 9.31725 12.5947 8.73998 12.6519C8.16408 12.7105 7.68142 12.229 7.66496 11.5786ZM11.2863 11.2129C11.2671 10.5611 11.721 9.9846 12.2969 9.92877C12.8741 9.86875 13.354 10.3517 13.3732 11.0021C13.3897 11.6539 12.9372 12.229 12.3599 12.2876C11.7827 12.3448 11.3027 11.8647 11.2863 11.2129ZM5.12003 13.0176C4.54413 13.0748 4.06147 12.5947 4.04502 11.9429C4.02719 11.291 4.47968 10.7174 5.05559 10.6588C5.63286 10.6015 6.11415 11.0817 6.13197 11.7321C6.14843 12.3839 5.6973 12.959 5.12003 13.0176ZM36.5453 39.2773L36.0532 6.56315L2.22682 9.59224V8.16174L37.4857 4.60534L38.4126 39.015L36.5453 39.2773Z" fill="#0D0D0D"/>
<path d="M188.723 34.103V19.2595H191.443L191.701 22.0726C192.198 21.095 192.885 20.3269 193.763 19.7683C194.661 19.1897 195.74 18.9004 197 18.9004V22.2222H196.169C195.329 22.2222 194.575 22.3718 193.907 22.6711C193.257 22.9504 192.732 23.4392 192.331 24.1375C191.949 24.8158 191.759 25.7635 191.759 26.9805V34.103H188.723Z" fill="#0E0D0D"/>
<path d="M178.641 34.4621C177.247 34.4621 176.006 34.1429 174.918 33.5044C173.849 32.8461 173.008 31.9383 172.397 30.7811C171.786 29.624 171.481 28.2773 171.481 26.7411C171.481 25.1849 171.777 23.8183 172.369 22.6412C172.98 21.4641 173.82 20.5463 174.889 19.888C175.978 19.2296 177.238 18.9004 178.67 18.9004C180.064 18.9004 181.276 19.2296 182.307 19.888C183.338 20.5264 184.14 21.3843 184.713 22.4616C185.286 23.539 185.573 24.726 185.573 26.0229C185.573 26.2224 185.563 26.4418 185.544 26.6812C185.544 26.9007 185.534 27.1501 185.515 27.4294H174.46C174.555 28.8659 175.004 29.9632 175.806 30.7213C176.627 31.4595 177.572 31.8286 178.641 31.8286C179.501 31.8286 180.217 31.6291 180.789 31.23C181.381 30.8111 181.82 30.2524 182.107 29.5542H185.143C184.761 30.9507 183.997 32.1179 182.852 33.0555C181.725 33.9932 180.322 34.4621 178.641 34.4621ZM178.641 21.504C177.629 21.504 176.732 21.8232 175.949 22.4616C175.166 23.0801 174.689 24.0178 174.517 25.2747H182.537C182.479 24.1175 182.088 23.1998 181.362 22.5215C180.637 21.8431 179.73 21.504 178.641 21.504Z" fill="#0E0D0D"/>
<path d="M165.116 34.1026V12.5557H168.152V34.1026H165.116Z" fill="#0E0D0D"/>
<path d="M159.59 16.4461C159.017 16.4461 158.54 16.2665 158.158 15.9074C157.795 15.5283 157.614 15.0595 157.614 14.5009C157.614 13.9423 157.795 13.4834 158.158 13.1243C158.54 12.7452 159.017 12.5557 159.59 12.5557C160.163 12.5557 160.631 12.7452 160.993 13.1243C161.375 13.4834 161.566 13.9423 161.566 14.5009C161.566 15.0595 161.375 15.5283 160.993 15.9074C160.631 16.2665 160.163 16.4461 159.59 16.4461ZM158.072 34.1026V19.2592H161.108V34.1026H158.072Z" fill="#0E0D0D"/>
<path d="M146.684 34.4621C145.481 34.4621 144.488 34.2526 143.705 33.8336C142.922 33.4147 142.34 32.866 141.958 32.1877C141.576 31.4894 141.385 30.7313 141.385 29.9133C141.385 28.4768 141.92 27.3396 142.989 26.5017C144.059 25.6637 145.586 25.2448 147.572 25.2448H151.295V24.9754C151.295 23.8183 150.99 22.9504 150.379 22.3718C149.787 21.7933 149.014 21.504 148.059 21.504C147.219 21.504 146.484 21.7234 145.853 22.1624C145.242 22.5813 144.87 23.2098 144.736 24.0477H141.7C141.796 22.9704 142.14 22.0526 142.732 21.2945C143.343 20.5164 144.106 19.9279 145.023 19.5288C145.958 19.1099 146.98 18.9004 148.088 18.9004C150.073 18.9004 151.61 19.449 152.699 20.5463C153.787 21.6237 154.331 23.1001 154.331 24.9754V34.103H151.696L151.439 31.5592C151.038 32.3772 150.455 33.0655 149.691 33.6241C148.928 34.1828 147.925 34.4621 146.684 34.4621ZM147.286 31.8884C148.107 31.8884 148.794 31.6889 149.348 31.2899C149.921 30.8709 150.36 30.3223 150.665 29.6439C150.99 28.9656 151.19 28.2175 151.267 27.3995H147.887C146.684 27.3995 145.825 27.6189 145.309 28.0578C144.813 28.4968 144.565 29.0454 144.565 29.7038C144.565 30.3821 144.803 30.9208 145.281 31.3198C145.777 31.6989 146.445 31.8884 147.286 31.8884Z" fill="#0E0D0D"/>
<path d="M136.25 34.1025C134.856 34.1025 133.749 33.7533 132.927 33.055C132.106 32.3368 131.696 31.0699 131.696 29.2544V21.9224H129.261V19.259H131.696L132.068 15.4883H134.732V19.259H138.742V21.9224H134.732V29.2544C134.732 30.0724 134.894 30.641 135.219 30.9602C135.563 31.2595 136.145 31.4091 136.966 31.4091H138.599V34.1025H136.25Z" fill="#0E0D0D"/>
<path d="M120.351 34.4621C118.995 34.4621 117.773 34.1429 116.685 33.5044C115.615 32.8461 114.766 31.9383 114.136 30.7811C113.505 29.604 113.19 28.2374 113.19 26.6812C113.19 25.1251 113.505 23.7684 114.136 22.6113C114.785 21.4342 115.654 20.5264 116.742 19.888C117.83 19.2296 119.043 18.9004 120.379 18.9004C121.735 18.9004 122.948 19.2296 124.017 19.888C125.105 20.5264 125.965 21.4342 126.595 22.6113C127.244 23.7684 127.569 25.1251 127.569 26.6812C127.569 28.2374 127.244 29.604 126.595 30.7811C125.965 31.9383 125.105 32.8461 124.017 33.5044C122.929 34.1429 121.707 34.4621 120.351 34.4621ZM120.351 31.7388C121.076 31.7388 121.745 31.5493 122.356 31.1702C122.986 30.7911 123.492 30.2325 123.874 29.4943C124.256 28.7362 124.447 27.7985 124.447 26.6812C124.447 25.564 124.256 24.6363 123.874 23.8981C123.511 23.14 123.015 22.5714 122.384 22.1923C121.773 21.8132 121.105 21.6237 120.379 21.6237C119.654 21.6237 118.976 21.8132 118.346 22.1923C117.735 22.5714 117.238 23.14 116.857 23.8981C116.475 24.6363 116.284 25.564 116.284 26.6812C116.284 27.7985 116.475 28.7362 116.857 29.4943C117.238 30.2325 117.735 30.7911 118.346 31.1702C118.957 31.5493 119.625 31.7388 120.351 31.7388Z" fill="#0E0D0D"/>
<path d="M103.312 34.6507C102.205 34.6507 101.221 34.4213 100.362 33.9624C99.5218 33.5035 98.8535 32.8551 98.3571 32.0172L98.042 34.2916H95.321V12.7446H98.3571V21.7525C98.8153 21.0542 99.4454 20.4357 100.247 19.897C101.049 19.3583 102.08 19.089 103.341 19.089C104.716 19.089 105.928 19.4282 106.978 20.1065C108.028 20.7848 108.849 21.7126 109.441 22.8897C110.052 24.0668 110.358 25.4035 110.358 26.8998C110.358 28.3961 110.052 29.7328 109.441 30.9099C108.849 32.0671 108.028 32.9848 106.978 33.6631C105.928 34.3215 104.706 34.6507 103.312 34.6507ZM102.797 31.8975C104.095 31.8975 105.164 31.4386 106.004 30.5209C106.845 29.5832 107.265 28.3662 107.265 26.8699C107.265 25.8923 107.074 25.0244 106.692 24.2663C106.31 23.5081 105.785 22.9196 105.116 22.5006C104.448 22.0617 103.675 21.8422 102.797 21.8422C101.498 21.8422 100.429 22.3111 99.5887 23.2488C98.7676 24.1865 98.3571 25.3935 98.3571 26.8699C98.3571 28.3662 98.7676 29.5832 99.5887 30.5209C100.429 31.4386 101.498 31.8975 102.797 31.8975Z" fill="#0E0D0D"/>
<path d="M84.505 34.103V19.2595H87.226L87.4837 22.0726C87.9802 21.095 88.6676 20.3269 89.5459 19.7683C90.4434 19.1897 91.5222 18.9004 92.7824 18.9004V22.2222H91.9518C91.1117 22.2222 90.3575 22.3718 89.6891 22.6711C89.0399 22.9504 88.5148 23.4392 88.1139 24.1375C87.732 24.8158 87.541 25.7635 87.541 26.9805V34.103H84.505Z" fill="#0E0D0D"/>
<path d="M72.8526 34.4614C71.1341 34.4614 69.7783 33.9027 68.7854 32.7855C67.8116 31.6682 67.3247 30.0023 67.3247 27.7878V19.2588H70.3607V27.4586C70.3607 30.3315 71.4873 31.768 73.7404 31.768C74.867 31.768 75.7931 31.349 76.5187 30.5111C77.2443 29.6732 77.6071 28.4761 77.6071 26.9199V19.2588H80.6431V34.1022H77.9508L77.7216 31.4987C77.2825 32.4164 76.6332 33.1446 75.774 33.6833C74.9338 34.202 73.96 34.4614 72.8526 34.4614Z" fill="#0E0D0D"/>
<path d="M61.9886 34.1025C60.5947 34.1025 59.4872 33.7533 58.6661 33.055C57.8451 32.3368 57.4345 31.0699 57.4345 29.2544V21.9224H55V19.259H57.4345L57.8069 15.4883H60.4706V19.259H64.4804V21.9224H60.4706V29.2544C60.4706 30.0724 60.6329 30.641 60.9575 30.9602C61.3012 31.2595 61.8835 31.4091 62.7046 31.4091H64.3372V34.1025H61.9886Z" fill="#0E0D0D"/>
<defs>
<filter id="filter0_b_336_3578" x="-27.3" y="-19.3" width="93.9822" height="89.7504" filterUnits="userSpaceOnUse" color-interpolation-filters="sRGB">
<feFlood flood-opacity="0" result="BackgroundImageFix"/>
<feGaussianBlur in="BackgroundImageFix" stdDeviation="15.65"/>
<feComposite in2="SourceAlpha" operator="in" result="effect1_backgroundBlur_336_3578"/>
<feBlend mode="normal" in="SourceGraphic" in2="effect1_backgroundBlur_336_3578" result="shape"/>
</filter>
</defs>
</svg>
